<svg xmlns="http://www.w3.org/2000/svg"><symbol id="velociraptor" viewBox="0 0 256 256"><path fill="#231f20" d="M128.4 2.5a125.2 125.2 0 1 0 125.1 125.2A125.2 125.2 0 0 0 128.4 2.5zm108.2 114.2h-7.2c-3 0-6-.2-9-.5l-9-.9-8.9-1a91 91 0 0 0-9.1-.4 123.8 123.8 0 0 0-16 1 68.1 68.1 0 0 0-15.6 3.6l-30 10.9c-.5.1-.9.7-1.2 1.5a17.3 17.3 0 0 0-.8 2.7l-.6 2.8a8.5 8.5 0 0 1-.6 1.9 2.7 2.7 0 0 0 1.3 1.3l2.4 1.2 2.9 1.1 2.7 1.4a9.1 9.1 0 0 1 2 1.9 3.5 3.5 0 0 1 .8 2.4 1.6 1.6 0 0 1-.4 1.2l-1.2.9-1.6.7-1.6.8a4 4 0 0 0-1.2 1 2.5 2.5 0 0 0-.5 1.5 3.9 3.9 0 0 0 .8 2.5 7 7 0 0 0 1.9 1.5 17.1 17.1 0 0 0 2.3 1.3 7.6 7.6 0 0 1 2.2 1.7 23.3 23.3 0 0 1 2 3.4 25.3 25.3 0 0 1 1.2 3.6c.3 1.3.6 2.5.8 3.8s.1 2.6.2 3.9l1.3 1.3v7h.9l1 .2.9.2.6.3a5.4 5.4 0 0 0 .1.8 5.1 5.1 0 0 1-.2.9 2.8 2.8 0 0 1-.3 1.3l-.6.9a1 1 0 0 1-.9.3h-5.1c-.2 0-.5-.5-1-.8l-1.4-.9-1.6-.7c-.5-.3-.9-.9-1.1-.9h-6.1a4.2 4.2 0 0 1 .7-2.9 3.9 3.9 0 0 1 1.6-1.5 6.5 6.5 0 0 1 2.1-.6l2.1-.4a4.4 4.4 0 0 0 1.6-.6 1.4 1.4 0 0 0 .6-1.3v-.6a8.3 8.3 0 0 0-.8-1.8 26.8 26.8 0 0 1-1.2-2.4l-1.5-2.4a10 10 0 0 0-1.6-1.8l-1.3-.8-1.8-.9-1.7-1a3.3 3.3 0 0 1-1-1.1c-.3-.8-.6-1.8-.9-2.9a29.9 29.9 0 0 0-1-3.2 9.2 9.2 0 0 0-1.7-2.5 4 4 0 0 0-2.9-1.1 23.3 23.3 0 0 0-5.9.8 31.1 31.1 0 0 0-5.6 2.2 29.3 29.3 0 0 0-5 3.4 26.7 26.7 0 0 0-3.8 4.5c-.1.2-.2.2-.4.2h-.1c-.1 0-.1-.1-.1-.2s-.2-.1-.2-.3-.1-.4-.2-.6-.1-.4-.2-.6a.4.4 0 0 0-.1-.3h-.3a1.4 1.4 0 0 0-1 .5l-.9 1.1-.8 1.3a4.9 4.9 0 0 1-.8 1 5.2 5.2 0 0 1-.7-1.6c0-.4-.1-1-.1-1.6a13.5 13.5 0 0 1 .4-2.9l.9-2.7a26.7 26.7 0 0 0 .9-2.6 14.1 14.1 0 0 0 .4-2.7h-4.9c0-1.6.2-1.8.7-2.3a5.7 5.7 0 0 1 1.5-1.6 18.9 18.9 0 0 1 2.1-.9l2.1-.2h3l2.9.5 2.8.5 2.9.2h2.3a2.5 2.5 0 0 0-1.7-1.3 10.1 10.1 0 0 0-2.5-.5l-2.7-.2c-.8 0-1.5.2-2.1-.2l-3.8-2.1h-.3a16.3 16.3 0 0 0-3.1-.1 10.8 10.8 0 0 1-3.1.2 7.3 7.3 0 0 1-3-.7l-2.6-1.3-2.6-1.4a4.8 4.8 0 0 0-2.8-.6v6l1.6-.2.9-.3.9-.5a3.5 3.5 0 0 1 .9-.6l.6-.2v2.7l2-.7c0 .2.2.3.2.6s.1.3.1.4a5.6 5.6 0 0 1-1.3 3.9 22.9 22.9 0 0 1-3.2 2.8 20.1 20.1 0 0 0-4.5-1.2l-4.7-.7v-7.6a8.2 8.2 0 0 0-1.7.5l-2.1 1a7.8 7.8 0 0 0-1.8 1.1c-.5.4-1 .8-1 1.2v6.8a9.6 9.6 0 0 0 3-.3l1.8-.6 1.2-.6a2.1 2.1 0 0 1 1.2-.3h.3a2.4 2.4 0 0 1 .3.7c.2.4.3.8.5 1.3l.3 1.2a2.4 2.4 0 0 1 .2 1 4.6 4.6 0 0 1-.4 1.9 5.9 5.9 0 0 1-1 1.7 7 7 0 0 1-1.6 1.4 3.5 3.5 0 0 1-1.8.5h-1l-2.9-.5-3.6-.7a13.3 13.3 0 0 1-3.2-1.2 2.6 2.6 0 0 1-1.4-2.1v-11.6l.9-.8 1.8-1.6 2.3-2.1a27.7 27.7 0 0 0 2.4-2.5 31 31 0 0 0 1.8-2.6 6.8 6.8 0 0 0 .7-2.6 3.7 3.7 0 0 0-1.2-2.7 11.1 11.1 0 0 0-2.7-2l-3.2-1.4-2.5-.9-1.3-8.9a14.7 14.7 0 0 0-.6-2.7 10.9 10.9 0 0 0-1.1-2.7 8.7 8.7 0 0 0-1.7-2.1 4 4 0 0 0-2.7-.9 12.3 12.3 0 0 0-3.5.5 13 13 0 0 0-3.2 1.5l-1.6 1-2.5 1.4-2.9 1.8-2.9 1.7c-1 .5-1.8 1.2-2.5 1.6s-1.3 1.1-1.7 1.1h-1l-1.7-.2-2-.4a2.3 2.3 0 0 1-1.3-.7c-.5-.3-.4-.8-.4-1.4v-1.8c0-.6-.2-.9.1-.9H31s-.1-.1 0-.4a1.9 1.9 0 0 0 .1-.8 3.1 3.1 0 0 0 .2-.8c.1-.3.1-.4 0-.5a1.9 1.9 0 0 0-.7-.8l-.9-.5-.7-.7a1.7 1.7 0 0 1-.3-1.2 3 3 0 0 1 .3-1.2 6 6 0 0 1 .6-1.1c.3-.4.3-.6.6-.9l.8-.3v.8a3.5 3.5 0 0 0 .6 1.4c.1.5.7.7 1.2.7a1.9 1.9 0 0 0 1.1-.4l.9-1.1a16.6 16.6 0 0 0 .6-1.6c.2-.5.3.2.3-1.4H23.6a1.5 1.5 0 0 1-.8-.5l-1-.6a3.6 3.6 0 0 1-.9-.8 1.3 1.3 0 0 1-.4-1 4.6 4.6 0 0 1 1-3.2 7.8 7.8 0 0 1 2.6-1.7 11.2 11.2 0 0 1 3.1-1l2.8-.8 2.2-.9 3.3-1.6 3.3-1.5a10.7 10.7 0 0 1 2.2-1.2h13.4a7.2 7.2 0 0 1 3.8 1 11.8 11.8 0 0 1 3 2.5 19.6 19.6 0 0 1 2.5 3.2c.8 1.2 1.5 2.3 2.3 3.3a18.6 18.6 0 0 0 2.2 2.5 4.2 4.2 0 0 0 2.5 1 .8.8 0 0 0 .7-.4 1 1 0 0 1 .9-.4 3.5 3.5 0 0 1 1.4.3l1.6.7 1.5.7a3.7 3.7 0 0 0 1.5.3l4-.2 4.1-.4 4-.5a27.5 27.5 0 0 1 4.1-.2c2.5 0 4.8.1 7.1.3a40.8 40.8 0 0 1 7.2 1.6c1.6.6 3.2 1.2 4.9 2l5 2.1a35 35 0 0 0 5.2 1.7 18.8 18.8 0 0 0 5.3.7h2.6l12.6-2.7c4.3-.8 8.5-1.6 12.7-2.2s8.4-1.2 12.7-1.5 8.5-.6 12.9-.6h8.7c1.8.1 3.5.7 5 .9l35.8 7.2h11.5c-.8 0-1.8 1-3.1 1.3a13.3 13.3 0 0 1-4 .2z"/></symbol><symbol id="brachiosaurus" viewBox="0 0 256 256"><path fill="#231f20" d="M60.4 166.1a36.9 36.9 0 0 0-7.6.8v.2c0 .3.3.6.8.9a10.6 10.6 0 0 0 1.9 1.1l2.6.9 2.8.9 2.4.5 1.4.3h2.1a11.1 11.1 0 0 0 2.5-.5 9 9 0 0 0 2.3-.8 4.7 4.7 0 0 0 1.7-1.4 23.6 23.6 0 0 0-6.3-2.2 29.6 29.6 0 0 0-6.6-.7z"/><path fill="#231f20" d="M128.3 2.5a125.2 125.2 0 1 0 125.1 125.2A125.3 125.3 0 0 0 128.3 2.5zm81.6 69.1v.3a8.8 8.8 0 0 1-.1 1.4c-.2.6-.2 1.3-.4 2s-.2 1.4-.3 2.1-.2 1.1-.2 1.3a7.6 7.6 0 0 0-.9 1.8 11.8 11.8 0 0 0-.7 2c-.2.6-.3 1.3-.5 1.9s-.5 1.3-.7 1.9-1.1 2.1-1.7 3-1.1 2-1.6 3l-19.6 27.3a3.9 3.9 0 0 0-.2.6l-.3.2-.3.3-.4.5-1.7 2.2-2 2.9-2.1 3.2a34.5 34.5 0 0 0-2 3.2 23.8 23.8 0 0 0-1.3 2.9 6 6 0 0 0-.6 2.3c0 .3-.2.5-.2.7s.2.4.2.7c-.1 0-.2.1-.2.4a.5.5 0 0 0 .2.4v10a4.4 4.4 0 0 1-.2 1c-.2.3-.2.7-.4 1.1s-.5.8-.6 1.2-.4.8-.4 1.1v1.6a.8.8 0 0 1 0 .5c-.2.2-.2.4-.4.7l-.7.8a1.1 1.1 0 0 1-.5.4v.4c0 .1.6.2.7.4s.9.4.9.4v2.8a19.7 19.7 0 0 1-.6 3.5c-.2 1.2-.6 2.3-.8 3.4s-.5 2.3-.6 3.5a19.7 19.7 0 0 0-.4 3.5c0 2 .1 4.1.3 6.2a42.1 42.1 0 0 0 1.1 6 27.8 27.8 0 0 0 2.1 5.7 23.9 23.9 0 0 0 3.4 5.1 4.1 4.1 0 0 1-1.3.8l-1.6.7-1.7.5h-1.9l-1-.2-1.2-.3-1-.2h-.7l-.7-.3c-.3-.1-.4-.3-.6-.5a1.6 1.6 0 0 1-.4-.7 26.1 26.1 0 0 0 .2-4l-.3-4.2c-.2-1.4-.3-2.8-.5-4.2s-.4-2.7-.5-4a.8.8 0 0 1-.2-.6l-.3-.6c.1-1.1.1-2.3.1-3.6a27.1 27.1 0 0 0-.1-4 26.3 26.3 0 0 0-.6-3.9 8.9 8.9 0 0 0-1.4-3.3 3 3 0 0 0-1.4 1.7 27.6 27.6 0 0 0-.8 2.7c-.2 1-.2 1.9-.4 2.9s-.9 1.7-.9 2.3v7.4c0 2.8-.2 5.5-.1 8.2a73.6 73.6 0 0 0 .6 8l.4.4.8.6.7.6c.3.3.4.5.4.7s-.3.4-.8.7l-1.8.9-2 .8-1.3.4h-.2l-4.6-2.5a.5.5 0 0 1-.3-.5v-.6a13.3 13.3 0 0 1 .1-2.9 28.1 28.1 0 0 0 .1-3c0-1.3-.2-2.5-.3-3.8l-.6-3.6-.6-3.7a23.6 23.6 0 0 1-.2-3.8c0-1.2 0-2.3.1-3.3l.3-2.8a25.6 25.6 0 0 0 .5-2.7c.2-1 .4-2 .7-3.2a2.3 2.3 0 0 0-.1-.7c0-.3-.1-.5-.1-.7l-1.8.2-1.8.6a6 6 0 0 0-1.9.6l-1.9.5-1.4.2h-2l-1-.2h-7a44.3 44.3 0 0 0-5.2-.2h-2.4a3.5 3.5 0 0 0-2.3.9 43.4 43.4 0 0 1 0 5.1c0 1.7-.1 3.3-.1 5l-.3 5c0 1.7-.1 3.4-.1 5.1v1a7.5 7.5 0 0 0 0 1.5v2.4c0 .6.6 1.1 1.1 1.7l1.4 1.7a9.9 9.9 0 0 1 1.1 1.7 3.1 3.1 0 0 1 .5 1.8v.2a7.8 7.8 0 0 1-4 .4c.1.5 0 .7-.2.8h-2.7l-2.2-.2a4.9 4.9 0 0 1-1.8-.8 2.4 2.4 0 0 1-.7-1.9 4.9 4.9 0 0 1 .1-1.2l.3-1.3.3-1.3a6.6 6.6 0 0 0 .1-1.4 24.2 24.2 0 0 0-.2-3.8c-.2-1.2-.4-2.3-.7-3.5s-.5-2.6-.8-3.8a25.3 25.3 0 0 1-.7-3.9h-.4c-.2 0-.4.8-.5.9a2.5 2.5 0 0 0-.4.7l-.3.5a18.8 18.8 0 0 1-1.6 2.3l-1.4 2.2a25.6 25.6 0 0 0-1.1 2.4 11 11 0 0 0-.4 2.7 5 5 0 0 0 .3 1.6c.3.5.5 1 .8 1.4a6.3 6.3 0 0 0 .7 1.2l.3.6a.9.9 0 0 1-.4.7l-1 .4-1.3.3h-4.3a2.3 2.3 0 0 1-1-.4 2.2 2.2 0 0 1-.7-.9 5 5 0 0 1-.5-1.6l-.6-1.6a7.8 7.8 0 0 1-.2-1.6 3.1 3.1 0 0 1 .4-1.5l.9-1.5 1.1-1.6.8-1.4 2.4-5.8 2.4-5.8a3.5 3.5 0 0 1 .5-.8l.5-.7a1.6 1.6 0 0 0 .4-.7 2.4 2.4 0 0 0 .2-.8q0-.6-.3-.6h-1.3l-8.8 2.4a3.2 3.2 0 0 1-1.3.5l-1.8.4a3.4 3.4 0 0 0-1.5.6 1 1 0 0 0-.7 1 2 2 0 0 0 .2.9l.7.6.8.6a1.3 1.3 0 0 1 .7.6l-.4.4a12.5 12.5 0 0 0-1.2-.8l-1.4-.8-1.5-.7-1.5-.2a16.4 16.4 0 0 0-3.7.5l-3.9 1.1c-1.3.5-2.7.8-4 1.2a20.1 20.1 0 0 1-4.2.5l-3.4-.4c-1.5-.3-3.1-.6-4.8-1.1l-5.4-1.7a44.8 44.8 0 0 1-4.9-2.3 17.6 17.6 0 0 1-3.6-2.6 4.3 4.3 0 0 1-.3-6.1 6.2 6.2 0 0 1 2.7-1.7 12.8 12.8 0 0 1 3.4-.1 28.8 28.8 0 0 1 3.3.3h4a2.2 2.2 0 0 1 1.2-.2h2.3l2.5.3 2 .3 1.9.5 1.7.9 1.8.7a6.9 6.9 0 0 0 2 .3 8.4 8.4 0 0 0 3.9-1 34.5 34.5 0 0 0 4.1-2.5c1.3-1 2.6-2 3.8-3.1l3.2-2.7 1.9-1.2 1.8-1.1 1.7-1.2a12.9 12.9 0 0 0 1.5-1.7 38.3 38.3 0 0 0 2.5-4.4 39.9 39.9 0 0 1 2.7-4.4 8 8 0 0 1 1.3-1.3l1.5-1 1.6-.8 1.6-.9 3.5-2.6 3.4-2.9 3.4-3 3.3-2.8a23.2 23.2 0 0 1 3.8-2.1l3.8-1.9a19.2 19.2 0 0 0 2.5-1.2l2.4-1.3 2.5-1.1a13.8 13.8 0 0 1 2.7-.8l22-3.2a11.8 11.8 0 0 0 3.5-1.1 21 21 0 0 0 3.3-2.2 27 27 0 0 0 3.1-2.8c1-1 2-2.1 2.9-3.2s1.8-2.1 2.6-3.2l2.3-2.7 7.6-8.9.3-.2.5-.6.5-.5q.3-.2.3-.3l2-3.2h.3l.3-.3a.5.5 0 0 0 .4-.2c.1-.1.2-.1.2-.2l.4-.4c.2-.2.4-.3.4-.4l1.2-1.6 1.4-2 1.3-1.9a14.7 14.7 0 0 0 .9-1.7 12.1 12.1 0 0 0 .9-2l.6-2.1.8-2.1c.3-.8 1-1.5 1-2.2v-6a5.3 5.3 0 0 0-1.1-3.1 10.4 10.4 0 0 0-2.6-2.5 10.6 10.6 0 0 0-3.3-1.8 8 8 0 0 0-3.1-.7 22.5 22.5 0 0 0-5.8.7 11.5 11.5 0 0 0-5 2.6 6.2 6.2 0 0 0-1.4 1.4l-1.6 1.8c-.6.7-1.2 1.3-1.7 2a10.7 10.7 0 0 1-1.9 1.8l-1.7 1.3a4.1 4.1 0 0 1-1.8.5 1.6 1.6 0 0 1-1.1-.5 1.4 1.4 0 0 1-.5-1.1v-.4a1.3 1.3 0 0 1 .1-.5c0-.2.1-.5.1-.7s.1-.5.2-.8v-.4a4.4 4.4 0 0 0-.2-1.7l-.6-1.3-.6-1.2a5 5 0 0 1-.2-1.2 1 1 0 0 0 .8-.3l.5-.6a1.6 1.6 0 0 1 .4-.7 1 1 0 0 1 .8-.6c0-.1.2-.1.5-.1h2.3a1 1 0 0 0 .9-.4l.7-.6h.4c0 .1.1.2.2.4s.1.4.2.4.1-.3.4-.4l.6-.3 1.1-.6a5.7 5.7 0 0 1 1.3-.8l1.3-.8 1.1-.7.6-.4 2.1-1.2a4.9 4.9 0 0 1 1.7-.6l1.9-.2h6.3a4.4 4.4 0 0 0 1.5.5l1.5.4a4 4 0 0 1 1.5.3 3.3 3.3 0 0 1 1.5.5 12.9 12.9 0 0 1 4.5 2.9 14.6 14.6 0 0 1 3.2 4.2 18.9 18.9 0 0 1 1.7 4.9 24.7 24.7 0 0 1 .5 5.4v1.5a2.2 2.2 0 0 0 0 .8z"/></symbol><symbol id="micropachycephalosaurus" viewBox="0 0 256 256"><path fill="#231f20" d="M132.7 150.4c-.3 0-.4.2-.4.6h-.1a.5.5 0 0 0-.5.5c0 .4.2.6.5.6s.4-.2.4-.6h.1c.3 0 .5-.1.5-.5s-.2-.6-.5-.6zm1.4-.7a2.7 2.7 0 0 0-.8.7h.3l1.1-.3a2 2 0 0 0 .8-.8h-.3a1.9 1.9 0 0 0-1.1.4zm3-2.6c-.2 0-.4.2-.4.6h-.1c-.3 0-.4.1-.4.5h-.1c-.4 0-.5.2-.5.6s.1.5.5.5.4-.1.4-.5h.1c.3 0 .5-.2.5-.6.4 0 .5-.2.5-.5s-.1-.6-.5-.6zm22.9-5.8a8.9 8.9 0 0 1-1.3 1.4c.3.5.5.9.8 1a2.3 2.3 0 0 0 1.2.2 1.7 1.7 0 0 0 1.3-.5 4.3 4.3 0 0 0 1.1-1.2l.7-1.4c.2-.5.4-1.2.5-1.2H161c-.2 0-.5 1.1-1 1.7z"/><path fill="#231f20" d="M128.2 2.5a125.2 125.2 0 1 0 125.2 125.2A125.2 125.2 0 0 0 128.2 2.5zM222 76.8a3.3 3.3 0 0 1-1.5.3h-3.6l-5.1 1.2a15.4 15.4 0 0 0-3.6 1.6 10.3 10.3 0 0 0-2.5 2.1 20.1 20.1 0 0 0-1.7 2.9 40.4 40.4 0 0 0-1.5 3.9c-.5 1.4-1 3.1-1.6 4.9l-1.2 3.4-1.2 3.2c-.5 1-.9 2-1.5 3a24.8 24.8 0 0 1-1.7 3.2 30.7 30.7 0 0 1-2.6 4 35.1 35.1 0 0 1-2.9 3.6c-1 1.2-2 2.4-3.1 3.5l-3 3.8a13.4 13.4 0 0 0-1.4 2.6l-.9 2.6a9.6 9.6 0 0 1-1.4 2.1 4.8 4.8 0 0 1-2.4 1.6l-1.3.6-2 .6-2 .6-1.4.4a3 3 0 0 1 .2 2 2.4 2.4 0 0 1-.8.9l-1.2.6a1.3 1.3 0 0 0-.9 1l-2.2 6.6a2.7 2.7 0 0 1-1.1 1.5l-1.7.8a13.6 13.6 0 0 1-2 .2 9.7 9.7 0 0 1-1.8-.1h-.9a4 4 0 0 1-1.1 0 .8.8 0 0 1-.4-.8c0-.2.1-.3.1-.4l.3-.3.2-.2a.6.6 0 0 0 .1-.4v-.2a21.1 21.1 0 0 0-3.4 1.6l-3.3 2-3.3 2.2-3.3 1.9-.9.5-1.1.5-1 .8a1.3 1.3 0 0 0-.4 1v.6l1.8 1.6 1.9 1.7 2 1.6 2.1 1.2a7.5 7.5 0 0 0 1.8.7l1.9.5 1.8.6a5.6 5.6 0 0 1 1.7.9 8.6 8.6 0 0 1 1.3 1.4l1.1 1.5a13.4 13.4 0 0 0 1.1 1.4 6.4 6.4 0 0 0 1.5 1.3l1.6.6a8.3 8.3 0 0 1 2.1.6 5.9 5.9 0 0 1 1.7 1 2.1 2.1 0 0 1 .8 1.7.4.4 0 0 0-.1.3v.2l-5.6 1.1-1.1.4-1.1.2h-.6l-1.1-.6-1.7-1-1.6-1a3.8 3.8 0 0 1-1.1-.8l-.2-.2-.3-.5-.3-.5-.3-.4-2.2-4.5-1.1-.4-1.8-.7-2.1-1-2.1-.9-1.8-.8-1.1-.6a15.8 15.8 0 0 1-2.7-1.6 17.1 17.1 0 0 1-2.6-2.1 17.9 17.9 0 0 1-2-2.6 11.2 11.2 0 0 1-1-3.1l-.5.2-.6.4-.9.6-1.7 1.2-2 1.3-2.1 1.4-1.8 1-.9.6-5.9 3.4a33.1 33.1 0 0 0-4.5 3.4 17 17 0 0 0-3.5 4.4c-.9 1.7-.7 3.8-2.4 6.5v.2c0 .1.1.2 0 .4v.9a10 10 0 0 0 1.2 4.4 6.5 6.5 0 0 0 2.1 2.5 6 6 0 0 0 2.6 1.4l2.5 1a5.6 5.6 0 0 1 1.9.9 6 6 0 0 1 .8 2h-13.1l-.2-.4-.3-.2h-.5l-.6-.3a3.7 3.7 0 0 1-1.3-1.5 7.8 7.8 0 0 1-.4-2.2 9.3 9.3 0 0 1 .2-2.3c0-.7.2-1.4.2-2v-1.4a7.5 7.5 0 0 1 .3-1.7c.2-.8.3-1.7.6-2.7s.4-2 .7-3.1.6-2.1.8-3.1.5-1.9.7-2.6.3-1.4.4-1.8l.6-2 1-1.8a16 16 0 0 0 4.5-2.5c1.1-1.1 2.2-2.1 3.2-3.3s1.9-2.2 2.8-3.4a16.6 16.6 0 0 1 3.4-3l1.4-.7 2-.8 2.3-.9 2.1-1.1a7.5 7.5 0 0 0 1.6-1.3 2.5 2.5 0 0 0 .6-1.6v-1.3a1.7 1.7 0 0 0-.6-1.2l-.8-.2-1.2-.6-1.1-.5-.8-.4a5.8 5.8 0 0 1-2-1.1l-2.6-1.9a23.6 23.6 0 0 0-2.5-1.5 3.4 3.4 0 0 0-1.7-.6h-7.8c-5.9 0-11.7-.1-17.4.1s-11.5.2-17.4.2c-4.3 0-8.5-.1-12.6-.4a96.9 96.9 0 0 1-12.2-1.3 82.5 82.5 0 0 1-11.9-2.9 67.7 67.7 0 0 1-11.6-5l-1.4-.7-1.5-1a5 5 0 0 1-1.3-1.2 2.4 2.4 0 0 1-.5-1.6 5.4 5.4 0 0 1 2 .4l2.4.9 2.2 1 1.5.6a47.2 47.2 0 0 0 4.5 1.6l5 1.5a45.4 45.4 0 0 0 5.1.9 25.6 25.6 0 0 0 4.7.4h26.2l2.5-.4 3.3-.5 3.6-.7 3.3-.6 2.7-.6 6.8-1.3c2.4-.4 4.8-1 7.2-1.6l7.2-2a63.6 63.6 0 0 0 6.5-2.8l3.7-1.7a30.8 30.8 0 0 1 3.8-1.6 25.5 25.5 0 0 1 3.9-1.3 27.1 27.1 0 0 1 4.1-.9h1l1.7-.2h1.8l1-.2 1.9-.3 3.3-.7 4-.9 4-.9c1.2-.3 2.3-.9 3.2-1.1s1.6-.7 1.9-.7h6.4a68.2 68.2 0 0 1 7.9.7c2.5.2 5 .5 7.7.5a9.5 9.5 0 0 0 4.9-1.3 17.8 17.8 0 0 0 4.5-3.4 37.5 37.5 0 0 0 3.8-4.9 62.2 62.2 0 0 0 3.2-5.6 44.6 44.6 0 0 0 2.5-5.5l1.8-4.7c.4-1.2.7-2.3 1.1-3.4a28.1 28.1 0 0 1 1-3.1 20.3 20.3 0 0 1 1.1-2.6 8.1 8.1 0 0 1 1.8-1.9 6.8 6.8 0 0 1 2.6-1.6 12 12 0 0 1 3.7-.8h3c.8 1.7 1.8.9 3 1.3s2.3 1 3.5 1.5a16 16 0 0 1 2.9 1.8 2.9 2.9 0 0 1 1.2 2.2 2.3 2.3 0 0 1-.4 1.4 3.6 3.6 0 0 1-1.2.6z"/></symbol><symbol id="unicorns-of-the-sea" viewBox="0 0 1920 1080"><path fill="#78a2b3" d="M0 0h1920v1080H0z"/><g fill="none" stroke-linecap="round" stroke-linejoin="round" stroke-width="12.37"><path stroke="#ff00e6" d="M186.8 1080a1315.5 1315.5 0 0 1 155.3-162.6c72.4-64.3 154.6-124.1 244.3-177.9 173.7-104.2 373.5-185.4 593.8-241.2s456.1-84.7 696.8-84.7c14.4 0 28.7.1 43 .3"/><path stroke="#9500ff" d="M267.9 1080a1284.5 1284.5 0 0 1 118-119c69.4-61.7 148.4-119.2 234.8-170.9 168.2-100.9 362.1-179.6 576.1-233.9 216.2-54.8 445.1-82.6 680.2-82.6 14.4 0 28.7.1 43 .3"/><path stroke="#0040ff" d="M351.7 1080q36.8-38.7 78-75.4c66.5-59 142.3-114.2 225.3-163.9 162.7-97.7 350.6-173.9 558.4-226.6 210.8-53.4 434.1-80.5 663.6-80.5 14.4 0 28.7.1 43 .3"/><path stroke="#2bff00" d="M439 1080q16.8-16.1 34.4-31.7c63.7-56.5 136.3-109.3 215.9-157.1 157.3-94.3 339.2-168 540.7-219.1 205.4-52.1 423.1-78.5 647-78.5 14.4 0 28.7.1 43 .3"/><path stroke="#fff700" d="M530.9 1080c57.4-49.4 122.1-95.9 192.6-138.2 151.9-91 327.9-162.3 523.1-211.8 200-50.7 412.1-76.4 630.4-76.4 14.4 0 28.7.1 43 .3"/><path stroke="#ff8000" d="M628.5 1080a1405 1405 0 0 1 129.3-87.6c146.4-87.7 316.5-156.5 505.4-204.5 194.6-49.3 401.1-74.3 613.8-74.3 14.4 0 28.7.1 43 .3"/><path stroke="red" d="M733.8 1080c280.9-188.1 689-306.4 1143.2-306.4 14.4 0 28.7.1 43 .3"/></g><path fill="#78a2b3" stroke="#fff" stroke-linecap="round" stroke-linejoin="round" stroke-width="12" d="M1176.2 333.6c2.2 24.1 4.6 48.6 7.4 73.3 1.1 13.6 2.6 27.4 4.3 41.5.6 4.9 1.2 9.4 1.7 13.6l-14.1 16.1a168.8 168.8 0 0 0-22.6 44.6q-23.4 75.4 42.6 151.8c-1.9 13.4-2.3 46.2 14 66.8a246.9 246.9 0 0 0 24.7 26.6l26.9-32.4q68.4 52.2 198.1 92.5 64.6 20.6 115.6 30.1c7.5 32.3 24.3 53.2 50.5 63 13.6 5.3 25.9 7 37 5.2-1.3-18.2-7.8-34.6-19.5-49.4l-17.1-16.1c12.9-2.5 23.4-7.4 31.4-14.5s11.5-14.3 13.3-22.4q-38.9-26.5-69.9-15.8c-10.3 3.8-18 9.2-23 16.2q-113.6-38.4-161-141.8-23.9-51.6-25.9-114.2t-58.1-98.6q-55.9-36.1-98.3-21.3l-16.3-33.7-17.1-33.2z"/><path fill="#fff" d="M1228.5 568.6a9.6 9.6 0 0 0 .1 8.6 9.8 9.8 0 0 0 5.3 6.9 11.9 11.9 0 0 0 9.3.2 10.7 10.7 0 0 0 6.2-5.6 12.5 12.5 0 0 0 .8-9 12.7 12.7 0 0 0-6.2-6.5 10.4 10.4 0 0 0-8.3-.5 11.7 11.7 0 0 0-7.2 5.9z"/></symbol></svg>